<?xml version="1.0" standalone="no"?>
<!DOCTYPE svg PUBLIC "-//W3C//DTD SVG 20010904//EN"
 "http://www.w3.org/TR/2001/REC-SVG-20010904/DTD/svg10.dtd">
<svg version="1.0" xmlns="http://www.w3.org/2000/svg"
 width="878.000000pt" height="878.000000pt" viewBox="0 0 878.000000 878.000000"
 preserveAspectRatio="xMidYMid meet">
<metadata>
Created by potrace 1.14, written by Peter Selinger 2001-2017
</metadata>
<g transform="translate(0.000000,878.000000) scale(0.100000,-0.100000)"
fill="#000000" stroke="none">
<path d="M679 8247 c-1 -1 -2 -1737 -3 -3858 l-1 -3857 3795 2 3794 1 1 3845
c0 2115 -1 3850 -3 3857 -3 8 -940 11 -3793 11 -2084 0 -3790 -1 -3790 -1z
m7411 -3857 l0 -3685 -594 0 c-327 0 -593 1 -592 3 4 4 29 8 90 16 27 4 52 9
55 11 3 1 22 6 41 9 104 17 327 87 431 135 24 11 51 21 59 23 8 2 17 5 20 8 3
3 32 19 65 37 116 62 233 170 278 259 36 70 61 174 42 174 -3 0 -38 -16 -78
-36 -88 -45 -285 -116 -298 -109 -5 4 -9 2 -9 -3 0 -5 -19 -13 -42 -17 -24 -4
-47 -9 -53 -10 -156 -37 -337 -53 -688 -60 -114 -2 -217 -1 -229 4 -22 8 -21
9 11 25 29 15 95 38 150 52 19 5 252 64 266 68 72 19 106 29 138 41 20 8 39
15 42 15 30 2 185 79 257 127 154 102 261 239 325 417 8 23 16 49 18 59 2 10
6 26 9 35 3 9 8 32 11 51 3 19 9 39 12 44 9 14 -14 0 -62 -39 -96 -78 -310
-186 -515 -261 -52 -19 -102 -36 -110 -38 -8 -2 -41 -13 -73 -24 -31 -11 -57
-18 -57 -15 0 2 -13 -2 -30 -11 -16 -9 -30 -14 -30 -11 0 2 -21 -3 -47 -11
-27 -8 -59 -17 -73 -19 -14 -3 -43 -10 -65 -16 -40 -10 -54 -14 -97 -23 -24
-5 -106 -22 -148 -30 -77 -16 -136 -17 -147 -3 -17 20 71 66 312 163 227 92
315 133 415 193 245 148 389 340 429 570 15 89 22 164 15 184 -5 16 -9 14 -32
-15 -36 -44 -65 -69 -147 -132 -72 -55 -218 -145 -235 -145 -6 0 -10 -5 -10
-10 0 -6 -3 -9 -7 -8 -5 1 -51 -19 -103 -44 -146 -70 -203 -95 -303 -134 -115
-45 -217 -84 -237 -89 -8 -2 -57 -20 -107 -38 -51 -19 -93 -33 -93 -31 0 2
-15 -3 -33 -11 -37 -15 -95 -17 -103 -3 -8 12 53 66 136 121 109 73 161 107
164 107 6 0 228 151 261 177 89 71 115 93 172 151 118 119 202 261 241 407 18
71 22 240 8 329 -8 52 -11 54 -32 15 -9 -18 -23 -39 -30 -47 -8 -7 -14 -17
-14 -22 0 -15 -200 -211 -259 -255 -30 -22 -61 -47 -70 -55 -40 -37 -411 -270
-430 -270 -6 0 -11 -3 -11 -8 0 -4 -21 -18 -47 -32 -26 -14 -96 -52 -155 -86
-110 -63 -160 -75 -166 -41 -6 31 67 113 238 267 118 107 187 176 250 250 30
36 57 67 60 70 10 10 31 45 36 63 4 9 10 17 14 17 9 0 67 129 86 190 36 119
35 281 -2 415 -9 33 -19 71 -22 83 -4 19 -14 5 -53 -75 -26 -54 -75 -137 -110
-184 -80 -108 -314 -342 -479 -479 -29 -25 -74 -62 -99 -84 -78 -65 -85 -71
-111 -89 -13 -9 -20 -17 -15 -17 6 0 -3 -9 -20 -19 -16 -11 -46 -33 -65 -50
-40 -34 -44 -19 40 -155 111 -180 187 -361 235 -556 13 -52 26 -108 31 -125 4
-16 8 -34 10 -40 6 -25 36 -235 40 -280 2 -27 6 -72 9 -100 6 -64 6 -248 0
-345 -5 -83 -25 -229 -39 -288 -15 -58 -17 -69 -22 -90 -5 -26 -28 -96 -50
-157 l-15 -40 -1219 0 c-670 0 -1221 2 -1224 5 -9 10 -23 175 -20 245 5 105
22 198 49 261 8 19 12 34 9 34 -7 0 63 127 99 180 63 92 186 206 277 256 19
10 37 22 40 25 9 10 159 77 189 85 9 2 54 13 101 25 90 23 328 34 380 18 14
-5 54 -16 90 -25 96 -24 227 -90 277 -140 7 -7 23 -21 36 -31 73 -59 128 -174
131 -275 0 -32 4 -58 8 -58 4 0 32 38 63 84 212 319 255 609 128 861 -48 96
-66 119 -148 201 -69 69 -183 154 -204 154 -6 0 -11 5 -11 10 0 6 -4 10 -10
10 -5 0 -32 13 -60 30 -27 16 -50 27 -50 24 0 -3 -12 2 -27 10 -53 30 -186 77
-323 115 -164 45 -427 88 -443 72 -8 -8 -56 -113 -130 -284 -13 -30 -10 -30
-102 -4 -40 11 -49 18 -47 33 2 10 5 46 5 80 2 75 -26 122 -93 157 -92 49
-201 12 -247 -83 -11 -25 -19 -48 -17 -52 10 -17 -18 -16 -77 2 -35 10 -95 28
-134 39 -427 124 -411 116 -260 125 44 3 103 8 130 11 50 5 106 11 212 20 32
3 77 7 100 10 23 2 77 7 120 10 43 4 94 8 113 10 19 2 64 6 100 9 36 4 90 9
120 12 30 3 78 8 105 10 28 2 75 6 105 9 30 3 79 8 109 11 30 3 58 7 62 9 10
7 -25 100 -54 144 -89 134 -363 310 -537 346 -8 2 -42 10 -75 19 -33 8 -78 18
-100 22 -22 3 -43 8 -46 9 -3 2 -28 7 -55 10 -27 4 -60 9 -74 12 -42 9 -422
11 -480 3 -30 -5 -71 -11 -90 -13 -104 -14 -377 -88 -465 -126 -278 -121 -487
-273 -671 -487 -38 -44 -82 -101 -99 -125 -16 -24 -32 -46 -36 -49 -29 -26
-195 -337 -273 -512 -25 -56 -84 -222 -112 -313 -13 -44 -28 -93 -34 -110 -8
-27 -31 -124 -44 -186 -3 -13 -7 -35 -11 -49 -3 -14 -10 -52 -15 -85 -5 -33
-12 -71 -15 -84 -2 -13 -7 -53 -10 -89 -6 -75 -15 -95 -16 -36 0 52 0 6702 0
6734 l1 26 3620 0 3620 0 0 -3686z"/>
<path d="M2849 7741 c-1 -3 -2 -232 -3 -509 l-1 -502 28 -1 c35 -1 112 -1 135
0 17 1 18 24 17 426 0 234 1 425 3 425 3 0 23 -49 27 -70 2 -8 13 -42 25 -75
12 -33 23 -67 25 -75 2 -8 11 -33 19 -55 31 -84 128 -361 131 -375 2 -8 4 -16
5 -17 2 -2 4 -7 5 -13 1 -5 4 -12 5 -15 1 -3 3 -8 4 -12 1 -5 4 -12 7 -18 4
-5 14 -36 24 -67 19 -64 11 -59 120 -59 25 0 64 0 88 0 l43 1 31 93 c17 50 52
151 77 222 26 72 58 164 72 205 21 62 67 191 92 260 3 8 6 21 8 29 1 7 6 17
11 22 5 5 8 -181 8 -411 l0 -420 35 -1 c61 -1 145 3 149 7 10 10 6 996 -4
1004 -16 12 -284 9 -295 -4 -5 -7 -16 -34 -25 -61 -9 -28 -19 -57 -22 -65 -3
-8 -7 -19 -9 -25 -1 -5 -24 -68 -49 -140 -26 -71 -48 -134 -49 -140 -2 -5 -6
-17 -9 -25 -4 -8 -31 -85 -61 -170 -54 -158 -74 -210 -75 -199 -1 7 -139 409
-191 554 -17 50 -32 95 -34 100 -3 16 -47 138 -58 161 -9 20 -17 21 -159 21
-82 0 -149 -3 -150 -6z"/>
<path d="M4472 7741 c-5 -3 -17 -31 -27 -61 -10 -30 -22 -60 -27 -67 -5 -7 -7
-17 -3 -23 3 -5 2 -10 -3 -10 -5 0 -9 -6 -9 -12 -1 -7 -15 -51 -32 -98 -18
-47 -38 -103 -46 -125 -7 -22 -34 -98 -60 -170 -26 -71 -66 -184 -90 -250 -23
-66 -50 -137 -58 -158 l-16 -37 37 -1 c108 -3 156 1 163 13 5 7 16 38 25 68
10 30 22 61 27 68 5 6 7 12 3 12 -4 0 0 13 9 30 8 16 15 33 15 37 0 5 99 9
220 11 231 3 225 3 234 -40 2 -7 6 -20 9 -28 6 -14 36 -104 42 -125 15 -51 14
-50 73 -48 31 1 76 2 99 2 l43 1 -26 68 c-14 37 -26 72 -28 77 -1 6 -11 35
-21 65 -11 30 -20 57 -20 60 -1 3 -6 16 -12 30 -6 14 -24 66 -41 115 -17 50
-40 115 -51 145 -56 156 -113 316 -115 325 -2 6 -6 17 -9 25 -3 8 -13 36 -22
61 l-17 46 -129 0 c-71 0 -133 -3 -137 -6z m293 -608 c-2 -5 -317 -4 -322 0
-5 6 110 357 128 389 5 10 9 22 9 27 0 5 5 22 11 38 10 26 17 10 93 -212 45
-132 81 -241 81 -242z"/>
<path d="M5165 7740 c-4 -6 -6 -68 -4 -130 1 -19 1 -55 0 -80 -1 -25 -1 -61 0
-80 1 -19 1 -55 0 -80 -1 -25 -1 -61 0 -80 1 -19 1 -55 0 -80 -1 -25 -1 -61 0
-80 1 -19 1 -55 0 -80 -1 -25 -1 -61 0 -80 1 -19 1 -55 0 -80 0 -25 0 -71 1
-104 l3 -58 73 0 c39 1 81 1 91 1 19 1 20 10 20 202 0 110 1 202 3 204 2 2 33
-24 69 -58 35 -34 112 -105 169 -157 58 -52 127 -116 155 -142 27 -27 59 -48
70 -49 32 -1 198 0 220 1 21 1 -30 52 -195 200 -40 36 -90 81 -110 100 -20 19
-72 67 -116 105 -43 39 -84 77 -90 85 -10 12 30 57 225 251 130 130 244 246
254 257 18 20 18 20 -102 19 l-121 -2 -106 -110 c-206 -214 -316 -325 -323
-325 -3 0 -5 98 -4 219 l2 218 -90 0 c-49 0 -92 -3 -94 -7z"/>
<path d="M6126 7741 c-8 -14 -2 -1002 6 -1007 9 -6 688 -8 693 -2 4 3 7 88 6
133 l-1 30 -260 -1 -260 0 0 131 0 131 218 -1 c119 0 224 1 232 3 12 2 16 19
15 80 l0 77 -210 1 c-115 1 -220 2 -232 3 -23 1 -23 3 -23 134 l0 132 253 -2
254 -2 -1 82 -1 82 -343 1 c-188 1 -344 -2 -346 -5z"/>
<path d="M6918 7742 c0 -4 -2 -233 -3 -509 l-2 -503 31 -1 c66 -2 149 1 153 4
2 3 5 89 6 193 l2 189 123 -2 c69 -1 137 -7 153 -13 42 -18 68 -59 139 -220
35 -80 65 -146 66 -148 2 -5 196 -3 201 2 3 3 -6 29 -19 58 -14 29 -46 101
-72 160 -27 59 -64 125 -83 148 -37 43 -85 74 -98 62 -5 -4 -5 -2 -2 4 4 6 25
14 47 18 49 8 108 39 137 74 13 15 27 32 32 38 32 38 45 154 27 232 -8 36 -51
104 -82 132 -33 29 -92 59 -144 73 -40 10 -609 19 -612 9z m542 -165 c38 -10
67 -27 90 -52 21 -22 25 -36 25 -90 0 -74 -19 -107 -80 -139 -33 -17 -60 -20
-216 -22 l-177 -1 -1 149 c-1 82 0 152 3 156 5 8 328 7 356 -1z"/>
<path d="M1946 7733 c-3 -4 -12 -8 -19 -9 -7 -2 -43 -15 -82 -29 -38 -15 -77
-29 -85 -31 -8 -2 -53 -17 -100 -35 -47 -17 -148 -53 -224 -80 -76 -27 -141
-50 -143 -53 -9 -9 -6 -177 3 -185 9 -7 55 -24 354 -131 80 -28 154 -55 165
-60 49 -21 168 -59 174 -56 7 5 7 124 0 129 -2 2 -35 13 -74 26 -38 13 -74 27
-79 31 -8 8 -11 298 -3 306 2 3 15 7 28 9 13 3 49 14 79 25 l55 21 -1 52 c-1
29 -3 58 -3 65 -1 13 -33 17 -45 5z m-230 -330 c-1 -67 -5 -108 -11 -108 -17
0 -315 100 -315 105 0 6 297 109 316 109 8 1 11 -33 10 -106z"/>
<path d="M1719 7062 c-1 -4 -2 -33 -3 -65 -1 -45 2 -61 15 -68 9 -4 19 -6 22
-3 3 3 28 -9 56 -27 59 -39 84 -87 84 -157 -2 -126 -92 -204 -238 -205 -38 0
-83 2 -98 6 -86 19 -153 83 -163 156 -15 106 27 185 114 217 26 10 50 23 54
28 5 6 7 35 6 64 l-1 54 -36 -7 c-115 -21 -222 -119 -247 -227 -13 -54 -9
-137 8 -194 50 -171 255 -267 458 -216 110 27 185 88 230 185 22 49 26 71 24
135 -2 84 -3 91 -24 142 -26 62 -74 110 -145 144 -61 29 -115 47 -116 38z"/>
<path d="M3649 6495 c-70 -12 -179 -52 -179 -66 0 -5 -5 -9 -11 -9 -11 0 -44
-32 -79 -76 -21 -27 -41 -91 -44 -144 -9 -141 87 -238 269 -274 38 -8 198 -33
264 -42 57 -7 118 -40 135 -72 17 -34 13 -92 -10 -127 -9 -14 -41 -37 -71 -51
-47 -23 -70 -28 -147 -29 -59 -1 -108 4 -140 14 -65 21 -124 79 -132 130 l-6
39 -82 -1 c-82 -2 -111 -10 -100 -28 3 -5 8 -25 10 -45 12 -97 104 -200 209
-234 22 -7 40 -12 40 -11 0 1 14 -3 30 -9 42 -17 231 -20 301 -5 109 24 155
47 217 108 32 32 56 61 53 64 -3 3 0 15 6 27 11 19 20 76 20 121 -1 83 -52
171 -122 209 -50 27 -136 54 -196 62 -38 4 -63 9 -114 18 -14 3 -43 8 -65 11
-116 16 -171 47 -181 101 -21 113 126 191 301 160 78 -14 155 -80 155 -132 0
-31 11 -36 78 -36 120 1 112 -2 106 40 -17 141 -109 238 -260 277 -78 20 -172
23 -255 10z"/>
<path d="M6477 6504 c-1 -1 -20 -5 -42 -8 -129 -19 -217 -70 -306 -176 -94
-112 -128 -320 -84 -524 28 -135 184 -303 305 -330 91 -20 123 -24 185 -21 39
2 79 6 90 9 162 39 278 154 329 325 26 89 28 86 -74 87 l-89 1 -15 -52 c-9
-28 -28 -70 -43 -92 -53 -79 -112 -109 -219 -112 -195 -6 -310 140 -300 385 2
49 9 103 16 119 6 17 13 38 15 47 9 46 102 148 128 140 4 -1 7 2 7 6 0 5 6 9
13 10 6 0 29 5 51 11 54 13 142 5 191 -19 69 -33 126 -109 141 -184 3 -20 10
-38 14 -41 11 -7 170 -8 177 -1 11 10 -17 106 -50 174 -56 117 -176 210 -300
232 -52 10 -135 18 -140 14z"/>
<path d="M4335 6480 l-50 -5 1 -500 c1 -275 2 -502 3 -505 0 -3 42 -6 91 -6
84 0 90 1 91 20 1 12 1 90 2 174 0 83 3 152 6 153 3 0 89 2 191 3 160 3 193 6
245 25 146 52 230 178 221 331 -10 165 -134 287 -312 306 -70 8 -423 11 -489
4z m538 -192 c55 -37 69 -62 74 -131 4 -53 2 -67 -19 -97 -13 -19 -43 -46 -67
-59 -41 -22 -55 -24 -208 -25 -90 -1 -167 1 -172 4 -6 4 -9 325 -3 338 1 2 82
2 180 0 172 -4 178 -4 215 -30z"/>
<path d="M5460 6480 c-30 -3 -56 -9 -57 -15 -1 -5 -59 -167 -128 -360 -69
-192 -140 -390 -157 -440 -17 -49 -39 -109 -50 -133 -29 -69 -29 -69 76 -68
l95 0 15 40 c8 23 26 77 41 121 l26 80 215 -1 c118 0 218 -5 223 -10 5 -5 25
-59 45 -120 l36 -110 98 1 c80 1 96 3 94 15 -4 17 -50 149 -164 470 -44 124
-95 270 -115 325 -62 178 -66 190 -74 198 -8 10 -140 14 -219 7z m117 -230 c4
-8 7 -17 7 -20 6 -23 110 -329 117 -342 7 -12 4 -18 -9 -21 -31 -9 -303 -4
-308 5 -3 5 -3 17 1 26 8 17 133 379 138 397 18 61 20 62 34 15 8 -25 17 -52
20 -60z"/>
<path d="M7123 6482 c-36 -3 -43 -7 -44 -25 -3 -139 0 -920 4 -924 3 -3 2 -15
-3 -27 -4 -13 -5 -27 -2 -33 5 -6 137 -9 357 -9 l350 1 3 82 3 82 -256 -1
c-141 0 -259 2 -262 5 -8 9 -9 248 0 254 4 2 108 4 232 3 176 0 225 2 226 12
5 83 2 148 -6 149 -5 0 -110 0 -232 0 l-223 -1 -1 23 c-1 26 -1 205 0 228 1
13 32 15 247 15 135 -1 249 1 253 4 4 3 7 40 7 82 -1 76 -2 78 -26 79 -121 2
-594 3 -627 1z"/>
<path d="M1293 6333 c-4 -11 -6 -58 -4 -99 1 -20 5 -21 235 -21 220 -1 238 -2
280 -22 74 -36 103 -110 81 -212 -8 -36 -51 -84 -94 -101 -16 -7 -120 -12
-259 -13 -127 -1 -234 -4 -237 -7 -5 -5 -9 -61 -6 -104 1 -21 3 -21 244 -19
133 1 256 7 273 12 87 29 138 74 176 153 30 64 31 206 2 271 -42 92 -122 153
-218 166 -85 12 -468 8 -473 -4z"/>
<path d="M1977 5723 c-4 -6 -22 -15 -39 -19 -18 -3 -39 -10 -48 -15 -8 -5 -98
-38 -200 -73 -265 -92 -394 -139 -399 -142 -2 -2 -4 -44 -5 -94 -1 -71 2 -91
14 -96 8 -3 51 -19 95 -35 44 -15 118 -42 165 -60 47 -17 97 -33 113 -36 15
-3 27 -9 27 -14 0 -5 3 -8 8 -7 7 3 115 -33 157 -52 26 -11 113 -40 123 -40 4
0 7 29 7 65 l0 65 -82 27 c-80 26 -83 28 -84 58 0 16 0 83 0 148 0 137 -3 133
97 161 35 10 64 21 65 25 1 3 2 29 3 58 2 58 -6 93 -17 76z m-260 -343 c0 -60
-4 -110 -9 -110 -10 0 -184 57 -213 70 -11 5 -39 14 -62 21 -24 7 -43 15 -43
18 0 6 292 107 316 110 7 1 11 -37 11 -109z"/>
<path d="M4409 4538 c7 -82 7 -225 -1 -263 -17 -86 -57 -193 -114 -306 -35
-70 -64 -128 -64 -131 0 -3 6 -5 13 -5 17 -1 81 -27 87 -35 3 -3 11 -8 19 -10
8 -2 49 -20 93 -40 43 -21 81 -37 84 -37 4 0 10 -5 15 -12 11 -18 15 -6 38
116 14 74 18 133 16 230 -3 135 -5 151 -32 250 -28 102 -129 305 -152 305 -5
0 -5 -28 -2 -62z"/>
<path d="M3736 4505 c24 -69 28 -87 40 -155 12 -70 9 -146 -9 -215 -10 -38
-20 -77 -22 -85 -2 -8 -8 -30 -14 -47 -5 -18 -9 -33 -8 -34 5 -2 46 -9 82 -15
61 -9 75 -12 144 -29 65 -16 85 -11 76 19 -4 12 -17 111 -18 139 -1 9 -4 17
-7 17 -4 0 -7 6 -7 14 0 21 -45 130 -57 138 -6 4 -8 8 -3 8 17 0 -114 194
-190 279 l-32 36 25 -70z"/>
<path d="M5246 4488 c2 -30 -28 -193 -36 -193 -1 0 -3 -8 -5 -18 -6 -31 -114
-230 -134 -247 -3 -3 -22 -27 -41 -55 -19 -27 -39 -55 -45 -61 -5 -6 -25 -29
-43 -52 -19 -23 -43 -51 -54 -64 -11 -13 -39 -45 -62 -71 -22 -27 -56 -65 -73
-85 -18 -21 -33 -40 -33 -44 0 -4 21 -22 48 -40 80 -55 129 -93 202 -158 25
-22 48 -40 51 -40 4 0 14 15 23 33 20 39 39 70 47 77 8 7 111 198 109 205 0 3
7 20 16 37 16 31 61 154 70 193 17 71 22 99 29 167 9 94 9 157 0 213 -4 28 -8
57 -9 65 -13 101 -66 225 -60 138z"/>
<path d="M3190 4432 c4 -17 11 -35 14 -40 8 -14 17 -113 16 -187 -1 -68 -3
-89 -15 -181 -5 -40 -5 -41 22 -38 16 2 76 4 136 4 l107 1 0 34 c0 67 -71 210
-141 286 -13 14 -42 45 -65 70 -22 24 -50 52 -62 63 -21 18 -21 18 -12 -12z"/>
<path d="M5855 4194 c-4 -26 -12 -59 -18 -73 -5 -14 -11 -28 -11 -31 -6 -24
-65 -130 -108 -192 -87 -125 -120 -162 -364 -404 l-234 -231 43 -46 c55 -59
114 -128 135 -158 19 -27 41 -55 60 -74 6 -8 12 -18 12 -24 0 -21 26 -11 43
17 9 15 29 41 44 59 15 17 35 40 43 50 8 10 36 44 63 75 26 31 47 61 47 67 0
6 4 11 8 11 13 0 116 149 172 249 70 125 119 266 125 362 1 28 5 52 8 55 2 2
3 19 1 37 -1 17 -5 60 -8 93 -5 66 -33 184 -46 197 -4 5 -11 -13 -15 -39z"/>
<path d="M2629 4138 c36 -60 85 -193 77 -207 -3 -4 -1 -12 2 -19 6 -8 29 -6
87 9 44 12 88 23 99 25 10 2 21 6 24 8 6 6 -47 59 -108 108 -42 33 -204 138
-214 138 -3 0 12 -28 33 -62z"/>
</g>
</svg>
