<?xml version="1.0" encoding="UTF-8"?>
<svg id="Layer_1" data-name="Layer 1" xmlns="http://www.w3.org/2000/svg" width="438.67" height="429.6" xmlns:xlink="http://www.w3.org/1999/xlink" viewBox="0 0 438.67 429.6">
  <defs>
    <style>
      .cls-1 {
        fill: url(#radial-gradient);
      }

      .cls-2 {
        clip-path: url(#clippath);
      }

      .cls-3, .cls-4 {
        fill: none;
      }

      .cls-4 {
        stroke: #000;
        stroke-miterlimit: 10;
        stroke-width: 8.59px;
      }
    </style>
    <clipPath id="clippath">
      <rect class="cls-3" x="41.72" y="179.61" width="365.79" height="219.36"/>
    </clipPath>
    <radialGradient id="radial-gradient" cx="220.54" cy="384.42" fx="220.54" fy="384.42" r="180.01" gradientUnits="userSpaceOnUse">
      <stop offset="0" stop-color="#fbb040"/>
      <stop offset="0" stop-color="#fab041"/>
      <stop offset=".07" stop-color="#e9b172"/>
      <stop offset=".14" stop-color="#dab19c"/>
      <stop offset=".22" stop-color="#ceb2bf"/>
      <stop offset=".29" stop-color="#c4b3d9"/>
      <stop offset=".36" stop-color="#beb3ec"/>
      <stop offset=".44" stop-color="#bab3f8"/>
      <stop offset=".52" stop-color="#b9b4fc"/>
      <stop offset="1" stop-color="#4382b6"/>
    </radialGradient>
  </defs>
  <rect class="cls-4" x="38.05" y="26.37" width="370.53" height="376.86"/>
  <g>
    <path d="M187.57,109.25c3.15,0,6,.39,8.54,1.16,2.54,.77,4.7,1.88,6.49,3.32,1.79,1.44,3.17,3.2,4.13,5.27,.97,2.07,1.45,4.41,1.45,7.01h-9.03c0-1.35-.28-2.57-.85-3.65-.56-1.08-1.36-2.01-2.38-2.78-1.03-.76-2.26-1.35-3.69-1.76-1.44-.41-3.02-.61-4.77-.61-1.46,0-2.88,.15-4.28,.45-1.39,.3-2.64,.76-3.73,1.37-1.09,.61-1.97,1.38-2.63,2.32-.67,.94-1,2.04-1,3.31,0,1.15,.28,2.08,.83,2.79,.55,.71,1.35,1.29,2.41,1.75,1.06,.46,2.34,.83,3.87,1.11,1.52,.28,3.26,.57,5.2,.85l2.37,.34c1.42,.21,2.89,.45,4.41,.72,1.52,.27,3,.62,4.44,1.05,1.44,.43,2.8,.98,4.09,1.65s2.41,1.51,3.38,2.53c.97,1.02,1.73,2.25,2.3,3.69,.56,1.44,.84,3.15,.84,5.11,0,2.66-.53,4.98-1.58,6.98-1.06,2-2.54,3.66-4.46,5-1.91,1.33-4.21,2.34-6.89,3.01-2.68,.67-5.65,1-8.91,1-3.54,0-6.7-.39-9.47-1.16-2.77-.78-5.11-1.9-7.02-3.37s-3.36-3.27-4.36-5.41c-1-2.13-1.5-4.56-1.5-7.27h9.03c0,1.45,.31,2.74,.92,3.89,.61,1.15,1.49,2.12,2.63,2.92,1.14,.79,2.53,1.4,4.17,1.82,1.64,.42,3.48,.63,5.51,.63,1.74,0,3.38-.16,4.93-.48,1.54-.32,2.89-.81,4.04-1.47,1.16-.66,2.07-1.49,2.74-2.5,.67-1.01,1-2.19,1-3.56,0-1.26-.28-2.27-.83-3.04-.56-.77-1.35-1.39-2.38-1.87s-2.27-.85-3.72-1.11c-1.45-.27-3.06-.53-4.84-.79l-2.99-.44c-1.07-.15-2.17-.32-3.29-.5s-2.24-.39-3.35-.64c-1.11-.25-2.19-.54-3.25-.88s-2.05-.75-2.99-1.24c-.95-.49-1.81-1.06-2.61-1.71-.79-.65-1.48-1.41-2.06-2.28s-1.02-1.86-1.34-2.97c-.32-1.11-.48-2.36-.48-3.76,0-1.73,.25-3.32,.75-4.78,.5-1.46,1.2-2.77,2.1-3.94,.9-1.17,1.99-2.19,3.26-3.08,1.27-.88,2.68-1.62,4.23-2.22,1.55-.6,3.22-1.05,5.01-1.34,1.79-.3,3.66-.44,5.6-.44Z"/>
    <path d="M214.09,110.32h23.83c1.85,0,3.6,.18,5.24,.55,1.64,.37,3.16,.9,4.56,1.59,1.4,.69,2.65,1.54,3.77,2.53,1.12,.99,2.07,2.1,2.85,3.33,.78,1.23,1.38,2.58,1.8,4.03,.41,1.45,.62,3,.62,4.63s-.21,3.18-.63,4.64c-.42,1.46-1.02,2.81-1.8,4.05-.78,1.24-1.73,2.36-2.84,3.35-1.12,1-2.37,1.84-3.77,2.53-1.4,.69-2.92,1.23-4.56,1.6-1.64,.37-3.38,.56-5.22,.56h-14.48v17.46h-9.35v-50.86Zm23.23,25.29c1.55,0,2.95-.2,4.2-.6s2.3-.97,3.18-1.72c.87-.75,1.54-1.65,2.01-2.72,.47-1.07,.7-2.26,.7-3.59s-.23-2.5-.69-3.57c-.46-1.06-1.12-1.96-1.98-2.69s-1.91-1.3-3.14-1.7-2.61-.6-4.14-.6h-14v17.18h13.87Z"/>
    <path d="M252.04,161.18l18.25-50.86h13.48l18,50.86h-9.94l-4.02-11.97h-21.95l-4.07,11.97h-9.75Zm33.1-19.94l-8.23-24.58-8.34,24.58h16.57Z"/>
    <path d="M310.32,135.75c0,2.88,.34,5.45,1.01,7.71,.68,2.26,1.65,4.17,2.94,5.73,1.28,1.56,2.84,2.75,4.69,3.56s3.95,1.22,6.31,1.22c3.82,0,6.89-1.08,9.21-3.24,2.32-2.16,3.88-5.37,4.66-9.64h9.32c-.51,3.3-1.42,6.25-2.73,8.87s-2.96,4.83-4.96,6.66-4.3,3.22-6.92,4.19c-2.61,.97-5.48,1.45-8.6,1.45-2.4,0-4.66-.29-6.79-.86-2.14-.57-4.1-1.4-5.91-2.48-1.8-1.08-3.42-2.4-4.85-3.96-1.43-1.56-2.65-3.32-3.66-5.28-1.01-1.96-1.78-4.11-2.31-6.45-.53-2.34-.8-4.83-.8-7.47s.27-5.13,.8-7.47c.53-2.34,1.3-4.48,2.31-6.45,1.01-1.96,2.23-3.72,3.66-5.28,1.44-1.56,3.05-2.88,4.85-3.96,1.8-1.08,3.77-1.91,5.91-2.48,2.13-.58,4.4-.86,6.79-.86,3.12,0,5.98,.48,8.6,1.45,2.61,.97,4.92,2.36,6.92,4.19,2,1.83,3.65,4.05,4.96,6.66s2.22,5.57,2.73,8.86h-9.32c-.78-4.27-2.34-7.48-4.66-9.64-2.33-2.16-5.39-3.24-9.21-3.24-2.36,0-4.46,.41-6.31,1.22-1.85,.81-3.42,2-4.69,3.56-1.28,1.56-2.26,3.47-2.94,5.73-.68,2.26-1.01,4.83-1.01,7.71Z"/>
    <path d="M388.47,110.32v8.25h-25.4v13.23h23.3v8h-23.3v13.12h26.07v8.25h-35.43v-50.86h34.75Z"/>
  </g>
  <g>
    <path d="M99.63,182.61l-35.28-12.65v-9.35l35.28-12.48v6.89l-8.3,2.79v15.22l8.3,2.82v6.76Zm-13.83-22.95l-17.05,5.71,17.05,5.79v-11.5Z"/>
    <path d="M64.35,147.7v-6.49h20.45c1.6,0,3.02-.19,4.24-.58,1.22-.39,2.24-.95,3.07-1.69,.83-.74,1.45-1.65,1.87-2.74,.42-1.08,.64-2.33,.64-3.73s-.21-2.64-.64-3.72c-.42-1.08-1.05-1.99-1.87-2.74-.83-.74-1.85-1.31-3.07-1.7-1.22-.39-2.63-.58-4.24-.58h-20.45v-6.49h20.72c1.58,0,3.05,.16,4.42,.49,1.37,.33,2.62,.8,3.76,1.43,1.13,.62,2.14,1.38,3.02,2.27,.88,.89,1.63,1.9,2.23,3.03s1.07,2.36,1.39,3.71c.32,1.34,.48,2.78,.48,4.3,0,2.29-.35,4.36-1.06,6.24-.71,1.87-1.72,3.47-3.04,4.81-1.32,1.33-2.92,2.36-4.81,3.09-1.89,.73-4.02,1.09-6.38,1.09h-20.72Z"/>
    <path d="M81.99,107.68c2,0,3.78-.23,5.35-.7,1.57-.47,2.89-1.15,3.97-2.03,1.08-.89,1.91-1.97,2.47-3.26,.56-1.28,.85-2.74,.85-4.38,0-2.65-.75-4.78-2.25-6.39-1.5-1.61-3.73-2.69-6.68-3.23v-6.46c2.29,.35,4.33,.98,6.15,1.89s3.35,2.06,4.62,3.44c1.26,1.39,2.23,2.98,2.9,4.8,.67,1.81,1.01,3.8,1.01,5.96,0,1.66-.2,3.23-.6,4.71-.4,1.48-.97,2.85-1.72,4.09-.75,1.25-1.66,2.37-2.74,3.37-1.08,1-2.3,1.84-3.66,2.54-1.36,.7-2.85,1.23-4.47,1.6-1.62,.37-3.35,.56-5.18,.56s-3.56-.18-5.18-.56c-1.62-.37-3.11-.9-4.47-1.6-1.36-.7-2.58-1.54-3.66-2.54-1.08-.99-1.99-2.12-2.74-3.37-.75-1.25-1.32-2.61-1.72-4.09-.4-1.48-.6-3.05-.6-4.71,0-2.16,.34-4.15,1.01-5.96s1.64-3.41,2.91-4.8c1.26-1.39,2.8-2.53,4.62-3.44,1.81-.91,3.86-1.54,6.15-1.89v6.46c-2.96,.54-5.19,1.62-6.69,3.23-1.5,1.61-2.25,3.74-2.25,6.39,0,1.64,.28,3.1,.85,4.38,.56,1.28,1.38,2.37,2.47,3.26,1.08,.89,2.41,1.57,3.97,2.03,1.57,.47,3.35,.7,5.35,.7Z"/>
    <path d="M99.63,81.6l-35.28-12.65v-9.35l35.28-12.48v6.89l-8.3,2.79v15.22l8.3,2.82v6.76Zm-13.83-22.95l-17.05,5.71,17.05,5.79v-11.5Z"/>
  </g>
  <g>
    <path d="M201.98,47.11v50.86h-9.36V54.97l-15.1,43h-11.38l-14.92-42.99v42.99h-9.04V47.11h15.35l14.6,42.1,14.76-42.1h15.08Z"/>
    <path d="M205.05,97.97l18.25-50.86h13.48l18,50.86h-9.94l-4.02-11.97h-21.95l-4.07,11.97h-9.75Zm33.1-19.94l-8.23-24.58-8.34,24.58h16.57Z"/>
    <path d="M275.23,72.91l27.58,25.06h-13.11l-22.5-20.7v20.7h-9.36V47.11h9.36v22.43l21.64-22.43h12.15l-25.77,25.8Z"/>
    <path d="M340.64,47.11v8.25h-25.39v13.23h23.3v8h-23.3v13.12h26.07v8.25h-35.43V47.11h34.75Z"/>
    <path d="M345.42,97.97V47.11h24.88c2.69,0,5.13,.37,7.33,1.09,2.19,.73,4.07,1.76,5.62,3.09,1.55,1.33,2.75,2.92,3.59,4.78,.84,1.86,1.26,3.93,1.26,6.21,0,2-.33,3.83-1,5.47-.67,1.64-1.62,3.05-2.85,4.23-1.22,1.18-2.71,2.1-4.45,2.77-1.74,.67-3.68,1.03-5.82,1.09,1.96,.14,3.69,.89,5.21,2.23,1.52,1.35,2.83,3.26,3.95,5.75l6.33,14.14h-10.33l-6.37-14.1c-.44-.98-.91-1.81-1.42-2.46-.51-.66-1.1-1.18-1.78-1.58-.68-.4-1.47-.68-2.38-.85-.91-.17-2-.25-3.25-.25h-9.16v19.24h-9.36Zm23.74-27.25c1.5,0,2.85-.18,4.04-.53,1.19-.36,2.19-.87,3.01-1.56,.82-.68,1.44-1.51,1.87-2.49,.43-.98,.65-2.09,.65-3.34s-.21-2.31-.63-3.25c-.42-.95-1.04-1.75-1.85-2.39-.81-.65-1.81-1.14-3-1.47-1.19-.33-2.56-.5-4.1-.5h-14.37v15.53h14.39Z"/>
  </g>
  <g class="cls-2">
    <path class="cls-1" d="M173.77,560.25c-75.95-19.7-132.04-88.71-132.04-170.82,0-34.73,9.64-67.8,27.36-94.42h0c9.08-13.26,22.6-26.29,42.04-33.48,31.66-11.69,55.79-5.42,66.73-2.67,10.88,2.75,28.97,12.87,30.22,24.8-23.52,2.15-47.01,4.31-70.49,6.46,9.99,2.88,20,5.76,29.99,8.64,.1-4.92,4.17-8.87,9.16-8.87s9.12,4.09,9.12,9.08c0,1.72-.49,3.33-1.3,4.71,2.5,.73,5,1.45,7.54,2.15,2.32-5.36,4.68-10.76,7.04-16.16,62.68,7.22,84.23,41.03,53.77,79.84,1.05-8.5-2.41-14.02-7.19-18.24-23.04-20.33-68.36-6.55-75.53,26.77-6.49,30.17,16.63,70.26,66.74,65.24,19.46-1.94,31.87-9.41,45.45-27.14,31.23-40.78,8.51-101.2,8.51-101.2l-1.37-3.15c-3.08-7-6.8-13.65-11.07-19.87,14.9-13.26,43.95-33.84,48.75-52.98,13.83,36.04-19.94,51.96-31.28,66.54-3.91,5.03,2.27,3.41,2.27,3.41,17.28-9.94,48.18-25.7,56.77-43.46,9.09,40.88-37.47,54.15-48.8,66.77,0,0-.23,1.92,5.33,.4,18.84-6.53,53.72-18.28,65.49-34.11,1.28,41.85-45.51,45.72-59,55.99,0,0-.65,1.37,3.4,1.22,19.69-3.13,55.26-12.75,69.61-26.29-6.06,41.43-47.3,38.73-62.4,46.47-1.61,1.84,7.1,1.15,2.68,1.27,24.66-.65,44.72,.39,68.08-12.26,0,0,1.05,15.48-22.95,25.09-6.58,2.63-17.74,7.53-37.42,9.23-1.09,.1-2.33,0-3.46-.09-1.59-.13-3.36,1-.47,1.82,.71,.2,1.87,.33,3.88,.62,21.52,3.07,42.06,7.13,60,5.11,0,0,.49,6.19-4.61,9.68-13.13,9.03-33.87,4.73-53.42,5.95-1.17,.08-4.25,.13-4.32,1-.04,.4,3.33,1.34,5.05,1.91,16.75,5.52,32.58,10.93,49.61,16.39-.84,2.8-1.36,5.12-5.27,7.48-10.16,6.16-31.22-.21-48.27-1.82-.7-.07-2.69-.41-2.98-.45-2.21-.35-.41,.88,1.1,1.88,.65,.43,.03,0,.8,.4,13.59,7.33,28.83,13.87,42.3,21.16-2.26,5.1-6.38,11.08-9.03,14.97,0,0-27.59-10.01-42.07-15.7,11.7,9.19,22.18,17.86,33.88,27.01-3.6,4.31-6.22,8.08-10.81,12.52,0,0-22.17-12.31-32.7-18.55,7.75,8.94,15.98,18.41,23.83,27.35-4.47,3.65-8.01,7.38-12.85,10.63,0,0-17.1-12.88-24.6-18.68,4.79,7.74,11.02,17.4,15.84,25.1-4.72,3.21-9.1,5.88-14.26,8.75,0,0-12.38-12.36-17.62-17.65,3.13,6.42,10.57,21.3,10.57,21.3-6.83,3.53-11.91,5.3-18.18,7.75-2.67-4.02-7.79-11.78-10.43-15.83,.84,4.6,4.41,13.13,5.29,17.73-5.81,1.68-17.77,4.56-17.77,4.56l-7.46-11.81c.24,2.7,1.7,13.11,1.7,13.11-30.77,4.61-49.72,3.35-78.46-2.56m-42.98-333.87c1.53,2.11,3.78,6.36,4.67,12.9,3.53-1,7.14-1.85,10.79-2.53-4.29-5.27-9.96-8.6-17.26-12.98l1.79,2.61Zm41.87,2.9c-2.31-6.64-7.31-11.9-14.07-18.64,3.14,7.07,2.85,15.52,1.14,24.38,2.98-.22,6.59-.33,9.62-.33,1.07,0,2.95,.04,4.01,.07h0c.11-1.85-.09-3.72-.69-5.48Zm14.97-17.51c2.34,9.98,1.94,12.56-1.82,24.1,5.15,.72,10.2,1.77,15.13,3.11,.44-11.51-5.61-22.3-15.78-33.86l2.47,6.65Zm31.03,14.65c-1.56,5.32-2.31,5.54-7.43,15.86,5.6,2.08,11.01,4.56,16.17,7.4,4-14.07,4.11-31.05-7.64-46.45l1.05,10.27c.23,4.56-.87,8.54-2.16,12.93Zm43.35-14.66c-1.3,15.48-14.75,28.96-26.58,42.71,5.43,3.56,10.58,7.54,15.38,11.89,9.17-14.14,21.02-34.65,11.65-58.94l-.45,4.33Zm30.9,10.82c-2.09,17.58-23.39,34.79-37.19,48.5,4.86,4.93,9.31,10.28,13.28,15.98,10.43-14.21,35.25-35.56,24.04-65.38l-.13,.91Z"/>
  </g>
</svg>